<svg xmlns="http://www.w3.org/2000/svg" width="512" height="512" viewBox="0 0 512 512">
  <defs>
    <linearGradient id="g" x1="0" y1="0" x2="1" y2="1">
      <stop offset="0" stop-color="#0D9488"/>
      <stop offset="1" stop-color="#0891B2"/>
    </linearGradient>
  </defs>
  <rect width="512" height="512" fill="url(#g)"/>
  <g fill="#ffffff">
    <ellipse cx="150" cy="238" rx="42" ry="54" transform="rotate(-18 150 238)"/>
    <ellipse cx="216" cy="178" rx="44" ry="58"/>
    <ellipse cx="296" cy="178" rx="44" ry="58"/>
    <ellipse cx="362" cy="238" rx="42" ry="54" transform="rotate(18 362 238)"/>
    <path d="M256 250 C312 250 366 296 366 348 C366 392 326 412 296 396 C276 385 276 372 256 372 C236 372 236 385 216 396 C186 412 146 392 146 348 C146 296 200 250 256 250 Z"/>
  </g>
</svg>
